<?xml version="1.0" standalone="no"?>
<!DOCTYPE svg PUBLIC "-//W3C//DTD SVG 20010904//EN"
 "http://www.w3.org/TR/2001/REC-SVG-20010904/DTD/svg10.dtd">
<svg version="1.0" xmlns="http://www.w3.org/2000/svg"
 width="512.000000pt" height="512.000000pt" viewBox="0 0 512.000000 512.000000"
 preserveAspectRatio="xMidYMid meet">
<metadata>
Created by potrace 1.14, written by Peter Selinger 2001-2017
</metadata>
<g transform="translate(0.000000,512.000000) scale(0.100000,-0.100000)"
fill="#000000" stroke="none">
<path d="M1745 5109 c-831 -101 -1518 -724 -1699 -1540 -177 -802 159 -1626
849 -2082 673 -444 1569 -429 2219 38 43 30 80 55 84 55 4 0 353 -346 777
-770 594 -593 780 -774 815 -789 90 -41 190 -22 260 49 71 70 90 170 49 260
-15 35 -196 221 -789 815 -424 424 -770 773 -770 777 0 4 25 41 55 84 417 580
478 1371 156 2012 -109 216 -230 381 -403 547 -288 278 -627 452 -1021 526
-130 24 -449 34 -582 18z m537 -487 c205 -44 407 -132 570 -248 107 -76 288
-258 356 -356 283 -414 355 -891 202 -1351 -152 -457 -501 -805 -959 -957
-171 -57 -277 -74 -471 -74 -253 0 -431 40 -647 144 -437 210 -734 586 -834
1057 -30 140 -37 373 -15 520 48 323 185 600 415 836 236 243 515 387 856 443
120 20 404 12 527 -14z"/>
<path d="M1241 3717 c-19 -7 -44 -25 -55 -40 -20 -27 -21 -42 -26 -423 l-5
-394 -25 -25 c-34 -34 -77 -45 -119 -31 -44 14 -69 49 -80 109 -17 91 -91 137
-165 102 -136 -65 -52 -332 132 -422 50 -24 69 -28 147 -28 82 0 97 3 157 33
77 37 128 90 167 172 l26 55 3 397 c3 331 1 402 -12 431 -24 58 -84 85 -145
64z"/>
<path d="M1925 3720 c-111 -16 -215 -94 -263 -198 l-27 -57 0 -325 c0 -313 1
-327 22 -372 30 -66 105 -143 172 -175 49 -25 68 -28 151 -28 89 0 99 2 158
34 75 41 125 94 161 170 l26 56 0 315 0 315 -29 62 c-31 68 -98 138 -163 171
-34 18 -60 25 -138 36 -11 2 -42 0 -70 -4z m113 -250 c18 -11 37 -32 42 -46 6
-14 10 -141 10 -287 0 -231 -2 -266 -17 -287 -28 -40 -45 -49 -96 -50 -40 0
-53 5 -77 28 -38 39 -42 73 -38 349 3 217 4 233 24 260 41 55 96 67 152 33z"/>
<path d="M2643 3719 c-17 -5 -43 -23 -57 -40 l-26 -31 0 -499 c0 -550 -1 -543
61 -575 26 -13 61 -15 208 -12 l176 3 63 34 c186 101 246 324 134 501 l-28 44
32 48 c58 86 68 219 25 322 -26 60 -103 142 -162 172 -26 13 -75 28 -110 34
-77 12 -272 12 -316 -1z m317 -244 c41 -21 60 -53 60 -100 0 -79 -50 -115
-160 -115 l-70 0 0 115 0 115 70 0 c43 0 82 -6 100 -15z m26 -489 c38 -38 45
-85 20 -134 -21 -41 -58 -56 -139 -56 l-72 -1 -3 113 -3 112 82 0 c79 0 82 -1
115 -34z"/>
</g>
</svg>
